<mxfile host="app.diagrams.net" modified="2022-07-06T03:03:57.482Z" agent="5.0 (Windows NT 10.0; Win64; x64) AppleWebKit/537.36 (KHTML, like Gecko) Chrome/103.0.0.0 Safari/537.36" etag="OoY6Vo1vPTjC7len0DqD" version="20.0.4" type="github">
  <diagram id="D3qZyIVYAh6MW_V3Ygs1" name="Page-1">
    <mxGraphModel dx="1209" dy="723" grid="1" gridSize="10" guides="1" tooltips="1" connect="1" arrows="1" fold="1" page="1" pageScale="1" pageWidth="827" pageHeight="1169" math="0" shadow="0">
      <root>
        <mxCell id="0" />
        <mxCell id="1" parent="0" />
        <mxCell id="S70pWsXaPZYtva4zW8H7-1" value="Start" style="strokeWidth=2;html=1;shape=mxgraph.flowchart.terminator;whiteSpace=wrap;" parent="1" vertex="1">
          <mxGeometry x="350" y="40" width="100" height="60" as="geometry" />
        </mxCell>
        <mxCell id="S70pWsXaPZYtva4zW8H7-2" value="Halaman Dashboard Data Produk&amp;nbsp;" style="rounded=1;whiteSpace=wrap;html=1;absoluteArcSize=1;arcSize=14;strokeWidth=2;" parent="1" vertex="1">
          <mxGeometry x="350" y="120" width="100" height="50" as="geometry" />
        </mxCell>
        <mxCell id="S70pWsXaPZYtva4zW8H7-4" value="Update" style="rounded=1;whiteSpace=wrap;html=1;absoluteArcSize=1;arcSize=14;strokeWidth=2;" parent="1" vertex="1">
          <mxGeometry x="350" y="190" width="100" height="50" as="geometry" />
        </mxCell>
        <mxCell id="S70pWsXaPZYtva4zW8H7-6" value="Input Nama,&lt;br&gt;deskripsi dan harga" style="html=1;strokeWidth=2;shape=manualInput;whiteSpace=wrap;rounded=1;size=26;arcSize=11;" parent="1" vertex="1">
          <mxGeometry x="345" y="260" width="110" height="70" as="geometry" />
        </mxCell>
        <mxCell id="S70pWsXaPZYtva4zW8H7-7" value="Update perubahan" style="rounded=1;whiteSpace=wrap;html=1;absoluteArcSize=1;arcSize=14;strokeWidth=2;" parent="1" vertex="1">
          <mxGeometry x="350" y="350" width="100" height="50" as="geometry" />
        </mxCell>
        <mxCell id="S70pWsXaPZYtva4zW8H7-8" value="" style="ellipse;whiteSpace=wrap;html=1;aspect=fixed;fillColor=#000000;" parent="1" vertex="1">
          <mxGeometry x="380" y="420" width="40" height="40" as="geometry" />
        </mxCell>
        <mxCell id="S70pWsXaPZYtva4zW8H7-11" value="" style="endArrow=classic;html=1;rounded=0;exitX=0.471;exitY=0.985;exitDx=0;exitDy=0;exitPerimeter=0;" parent="1" source="S70pWsXaPZYtva4zW8H7-1" target="S70pWsXaPZYtva4zW8H7-2" edge="1">
          <mxGeometry width="50" height="50" relative="1" as="geometry">
            <mxPoint x="420" y="390" as="sourcePoint" />
            <mxPoint x="470" y="340" as="targetPoint" />
          </mxGeometry>
        </mxCell>
        <mxCell id="S70pWsXaPZYtva4zW8H7-13" value="" style="endArrow=classic;html=1;rounded=0;exitX=0.5;exitY=1;exitDx=0;exitDy=0;entryX=0.5;entryY=0;entryDx=0;entryDy=0;" parent="1" source="S70pWsXaPZYtva4zW8H7-2" target="S70pWsXaPZYtva4zW8H7-4" edge="1">
          <mxGeometry width="50" height="50" relative="1" as="geometry">
            <mxPoint x="420" y="270" as="sourcePoint" />
            <mxPoint x="470" y="220" as="targetPoint" />
          </mxGeometry>
        </mxCell>
        <mxCell id="S70pWsXaPZYtva4zW8H7-14" value="" style="endArrow=classic;html=1;rounded=0;exitX=0.5;exitY=1;exitDx=0;exitDy=0;entryX=0.501;entryY=0.193;entryDx=0;entryDy=0;entryPerimeter=0;" parent="1" source="S70pWsXaPZYtva4zW8H7-4" target="S70pWsXaPZYtva4zW8H7-6" edge="1">
          <mxGeometry width="50" height="50" relative="1" as="geometry">
            <mxPoint x="420" y="270" as="sourcePoint" />
            <mxPoint x="470" y="220" as="targetPoint" />
          </mxGeometry>
        </mxCell>
        <mxCell id="S70pWsXaPZYtva4zW8H7-15" value="" style="endArrow=classic;html=1;rounded=0;exitX=0.5;exitY=1;exitDx=0;exitDy=0;entryX=0.5;entryY=0;entryDx=0;entryDy=0;" parent="1" source="S70pWsXaPZYtva4zW8H7-6" target="S70pWsXaPZYtva4zW8H7-7" edge="1">
          <mxGeometry width="50" height="50" relative="1" as="geometry">
            <mxPoint x="420" y="390" as="sourcePoint" />
            <mxPoint x="470" y="340" as="targetPoint" />
          </mxGeometry>
        </mxCell>
        <mxCell id="S70pWsXaPZYtva4zW8H7-16" value="" style="endArrow=classic;html=1;rounded=0;exitX=0.5;exitY=1;exitDx=0;exitDy=0;entryX=0.505;entryY=0.043;entryDx=0;entryDy=0;entryPerimeter=0;" parent="1" source="S70pWsXaPZYtva4zW8H7-7" target="S70pWsXaPZYtva4zW8H7-8" edge="1">
          <mxGeometry width="50" height="50" relative="1" as="geometry">
            <mxPoint x="420" y="390" as="sourcePoint" />
            <mxPoint x="470" y="340" as="targetPoint" />
          </mxGeometry>
        </mxCell>
      </root>
    </mxGraphModel>
  </diagram>
</mxfile>
